<svg xmlns="http://www.w3.org/2000/svg" width="32" height="32"><g fill="none"><path fill="#EE6344" d="M12 11.5a3.5 3.5 0 0 0-7 0m22 0a3.5 3.5 0 0 0-7 0"/><path stroke="#484848" stroke-width="2" d="M21.909 11.953a6.002 6.002 0 0 0-11.849.193m19.96 7.828a5 5 0 0 0-6.279-7.436m-15.277.11a5 5 0 0 0-6.43 7.396"/><path stroke="#484848" stroke-width="2" d="M15 11h2c7.732 0 14 6.268 14 14H1c0-7.732 6.268-14 14-14z"/><circle cx="13" cy="16" r="1" fill="#EE6344"/><circle cx="17" cy="20" r="1" fill="#EE6344"/><circle cx="24" cy="19" r="1" fill="#EE6344"/><circle cx="7" cy="21" r="1" fill="#EE6344"/></g></svg>