<svg xmlns="http://www.w3.org/2000/svg" width="135" height="135"><g fill="none" transform="translate(22.25 19.5)"><circle cx="27.75" cy="99.5" r="8" fill="#000" fill-opacity=".24"/><circle cx="64.75" cy="99.5" r="8" fill="#000" fill-opacity=".24"/><path stroke="#484848" stroke-linecap="round" stroke-linejoin="round" stroke-width="3" d="M93.75.5h12v8h-12zm0 4h-7l-4 16m-1 8.027l-8 41.973-57-6-8-35.973z"/><rect width="89" height="11" x=".75" y="19.5" fill="#000" fill-opacity=".24" rx="2"/><path stroke="#484848" stroke-linecap="round" stroke-linejoin="round" stroke-width="3" d="M17.75 85.5h53a2 2 0 0 0 2-2c0-1.247-.631-2.41-1.677-3.09L52.75 68.5m-7.425-11.25v-21m11.213 22l2-22m8.65 23l4-23m-46.75 19l-3-19m13.537 20l-1-20"/></g></svg>