<svg xmlns="http://www.w3.org/2000/svg" width="250" height="250" viewBox="0 0 250 250">
    <g fill="none" fill-rule="nonzero">
        <path stroke="#484848" stroke-width="2" d="M93.464 188.337l-19.229 10.11a4.8 4.8 0 0 1-6.965-5.06l8.907-51.928-37.727-36.774a4.8 4.8 0 0 1 2.66-8.188l52.137-7.576 23.317-47.244a4.8 4.8 0 0 1 8.608 0L148.49 88.92l52.137 7.576a4.8 4.8 0 0 1 2.66 8.188l-37.726 36.774 8.906 51.927a4.8 4.8 0 0 1-6.965 5.06l-46.633-24.516-12.065 6.343M22.947 156.805l-11.83 6.219a.8.8 0 0 1-1.16-.844l2.259-13.172-9.57-9.328a.8.8 0 0 1 .443-1.365l13.226-1.922 5.914-11.984a.8.8 0 0 1 1.435 0l5.915 11.984 13.226 1.922a.8.8 0 0 1 .443 1.365l-9.57 9.328 2.259 13.172a.8.8 0 0 1-1.16.844l-11.83-6.22z"/>
        <path stroke="#484848" stroke-width="2" d="M69.924 71.671l-5.885 3.094a.8.8 0 0 1-1.16-.843l1.123-6.553-4.76-4.64a.8.8 0 0 1 .443-1.365l6.58-.956 2.942-5.962a.8.8 0 0 1 1.434 0l2.943 5.962 6.579.956a.8.8 0 0 1 .443 1.365l-4.76 4.64 1.123 6.553a.8.8 0 0 1-1.16.843l-5.885-3.094zM235.924 159.671l-5.885 3.094a.8.8 0 0 1-1.16-.843l1.123-6.553-4.76-4.64a.8.8 0 0 1 .443-1.365l6.58-.956 2.942-5.962a.8.8 0 0 1 1.434 0l2.943 5.962 6.579.956a.8.8 0 0 1 .443 1.365l-4.76 4.64 1.123 6.553a.8.8 0 0 1-1.16.843l-5.885-3.094z"/>
        <circle cx="28.6" cy="82.6" r="5.6" fill="#000" fill-opacity=".24"/>
        <circle cx="163.6" cy="55.6" r="3.6" fill="#000" fill-opacity=".24"/>
        <circle cx="25.8" cy="200.8" r="2.8" fill="#000" fill-opacity=".24"/>
        <path fill="#C2C2C2" d="M194.226 57.226a7.6 7.6 0 0 1 0 10.748l-66.929 66.929c-3.905 3.905-10.237 3.905-14.142 0l-20.929-20.929a7.6 7.6 0 0 1 10.748-10.748l17.252 17.252 63.252-63.252a7.6 7.6 0 0 1 10.748 0z"/>
        <path stroke="#484848" stroke-linecap="round" stroke-linejoin="round" stroke-width="2" d="M102.2 208.8L87 172l35.2 14.4-10.4 6.4 10.4 10.4-4 4-10.4-10.4z"/>
    </g>
</svg>
