<svg xmlns="http://www.w3.org/2000/svg" width="250" height="250"><g fill="none"><path stroke="#000" stroke-linecap="round" stroke-linejoin="round" stroke-opacity=".24" stroke-width="2" d="M25 37h200v48H25z"/><g transform="translate(185 45)"><circle cx="16" cy="16" r="16" fill="#000" fill-opacity=".24"/><path d="M11 11l10 10m-10 0l10-10" stroke="#FFF" stroke-linecap="round" stroke-linejoin="round" stroke-width="2"/></g><path stroke="#484848" stroke-linecap="round" stroke-linejoin="round" stroke-width="2" d="M45 61h120"/><path stroke="#000" stroke-linecap="round" stroke-linejoin="round" stroke-opacity=".24" stroke-width="2" d="M41 101h200v48H41z"/><g transform="translate(201 109)"><circle cx="16" cy="16" r="16" fill="#000" fill-opacity=".24"/><path stroke="#FFF" stroke-linecap="round" stroke-linejoin="round" stroke-width="2" d="M22 12l-8 8-4-4"/></g><path stroke="#484848" stroke-linecap="round" stroke-linejoin="round" stroke-width="2" d="M61 125h120"/><path stroke="#000" stroke-linecap="round" stroke-linejoin="round" stroke-opacity=".24" stroke-width="2" d="M9 165h200v48H9z"/><g transform="translate(169 173)"><circle cx="16" cy="16" r="16" fill="#000" fill-opacity=".24"/><path d="M11 11l10 10m-10 0l10-10" stroke="#FFF" stroke-linecap="round" stroke-linejoin="round" stroke-width="2"/></g><path stroke="#484848" stroke-linecap="round" stroke-linejoin="round" stroke-width="2" d="M29 189h120"/></g></svg>