<svg xmlns="http://www.w3.org/2000/svg" width="168" height="59"><g fill="none" fill-rule="evenodd"><path fill="#000" fill-opacity=".8" d="M2.53.68c.756-.046 1.517.173 2.283.656l.656 3.76.164.656c.009.465.118 1.012.328 1.64.036.775.2 1.705.492 2.79a.761.761 0 0 0 .164.492v.82l.328.82c-.009.256.046.53.164.82l.164.971.165.657c.957-1.559 1.011-3.304.164-5.237l.492-.984c1.24-1.112 2.602-1.55 4.088-1.312l.82-.82c.128.017.237.127.328.327.237 1.614.182 3.528-.164 5.743.255.473.529 1.125.82 1.955.328.72.602 1.595.82 2.625l.165.328.164.656c.392-.492.775-1.148 1.148-1.969l1.149-2.297c.155-.437.373-.925.656-1.463l.164-.328.164-.492.164-.328.164-.492c.365-.556.688-1.267.97-2.133l.329-.656.328-.328.164-.493.328-.492.328-.656c.438-.747 1.094-1.4 1.97-1.955-.037 1.112-.31 2.31-.821 3.596.127 2.132-.31 4.315-1.313 6.548-.683 4.75-3.14 8.791-7.369 12.127-.228-.72-.61-1.595-1.148-2.625l-.164-.492-.328-.328c.072-.911-.142-1.891-.643-2.94a10.855 10.855 0 0 0-.328-1.64c-.438.73-.82 1.714-1.149 2.953l-.328.328v.492c-.173.365-.446.798-.82 1.3l-.328.82c-.365.3-.802.738-1.313 1.312H5.797c-.684-1.185-1.121-2.602-1.313-4.252-.045-.437-.205-.875-.478-1.312.11-1.723-.219-3.637-.985-5.743-.036-.993-.255-2.137-.656-3.431 0-.547-.11-1.149-.328-1.805l-.164-.984-.164-1.149C.979 5.89.542 4.854.396 3.633.706 2.493 1.417 1.509 2.53.68zm24.964.52l.37-.561c.4 0 .893.063 1.476.191h.56l1.3.178.368.191.547-.191h2.037l1.121-.37c2.954 1.067 3.756 2.612 2.407 4.635-1.158.073-2.58.32-4.266.739h-1.477l-.738.177-.56.192-.192 3.336-.177.369v.547l1.845.369 2.037.383h.56l.93-.383c4.23 1.55 4.043 3.158-.56 4.826-.802-.173-1.791-.173-2.967 0H30.64l-.37.178h-.56l-.37 1.299-.368 1.476v.56l-.178.37v.56c.811.128 1.796.374 2.953.739l1.49.177c.438.994 1.176 1.86 2.215 2.598-.027.702-.273 1.445-.738 2.229-2.005.191-4.165-.119-6.48-.93h-.561c-1.149.173-2.32.05-3.514-.37-.164-1.239-.105-2.784.178-4.634l.191-1.299.56-3.144c-.446-.884-.633-1.996-.56-3.336.812-.985 1.304-2.279 1.477-3.883.091-1.103-.155-2.215-.738-3.336.191-.501.5-.993.93-1.477l.177-.369c.374-.501.747-1.18 1.121-2.037zM2.53 32.68c.757-.046 1.518.173 2.284.656l.656 3.76.164.656c.009.465.118 1.012.328 1.64.036.775.2 1.705.492 2.79a.761.761 0 0 0 .164.492v.82l.328.82c-.009.256.046.53.164.82l.164.971.165.657c.957-1.559 1.011-3.304.164-5.237l.492-.984c1.24-1.112 2.602-1.55 4.088-1.312l.82-.82c.128.017.237.127.328.327.237 1.614.182 3.528-.164 5.743.255.473.529 1.125.82 1.955.328.72.602 1.595.82 2.625l.165.328.164.656c.392-.492.775-1.148 1.148-1.969l1.149-2.297c.155-.437.373-.925.656-1.463l.164-.328.164-.492.164-.328.164-.492c.365-.556.688-1.267.97-2.133l.329-.656.328-.328.164-.493.328-.492.328-.656c.438-.747 1.094-1.4 1.97-1.955-.037 1.112-.31 2.31-.821 3.596.127 2.132-.31 4.315-1.313 6.548-.683 4.75-3.14 8.791-7.369 12.127-.228-.72-.61-1.595-1.148-2.625l-.164-.492-.328-.328c.072-.911-.142-1.891-.643-2.94a10.855 10.855 0 0 0-.328-1.64c-.438.73-.82 1.714-1.149 2.953l-.328.328v.492c-.173.365-.446.798-.82 1.3l-.328.82c-.365.3-.802.738-1.313 1.312H5.797c-.684-1.185-1.121-2.602-1.313-4.252-.045-.437-.205-.875-.478-1.312.11-1.723-.219-3.637-.985-5.743-.036-.993-.255-2.137-.656-3.431 0-.547-.11-1.149-.328-1.805l-.164-.984-.164-1.149C.979 37.89.542 36.854.396 35.633c.31-1.14 1.021-2.124 2.133-2.953zm26.032.027h.355c.73-.082 1.431.21 2.105.875.128 1.112.01 2.342-.355 3.691l-.178 1.23v.52l-.177.356c0 .383-.055.852-.165 1.408-.036.52-.154 1.103-.355 1.75v.711l1.75.697 1.23.534h.534l.355.177 1.23.164 1.217.178c.638-1.969.875-4.252.711-6.85l.178-.52v-1.052l-.178-.355-.533-.698c.985-2.88 2.625-3.408 4.922-1.586v5.264c0 .383-.06.852-.178 1.408v1.053c0 .383-.059.852-.177 1.408v.534l-.178.697c.027.42.146.83.355 1.23v1.928l-.697 1.928c-.264.574-.442 1.28-.533 2.119l-.178.52-.342.533-.177.52-.178.71-.178.52-.355.533c-.174.337-.347.806-.52 1.408L36.463 58c-.684-1.54-.975-3.354-.875-5.441-.055-.793-.287-1.732-.697-2.817v-.52c-1.167-.127-2.694-.478-4.58-1.052l-.342-.178-.533-.178-.342-.177-.533 3.336-.178.71-.178.342v.534l-1.75 3.691-.178.52c-.355.237-.825.469-1.408.697l-.342-1.572-.177-.875a.817.817 0 0 0-.178-.534l-.178-3.336c.337-1.02.629-2.37.875-4.046l.178-1.217a7.098 7.098 0 0 1 .355-1.942 3.055 3.055 0 0 1 .178-1.408v-.52c.146-.555.26-1.257.342-2.105.11-.319.168-.788.178-1.408l.355-1.408v-.52c.191-.62.31-1.38.356-2.283.601-.346 1.184-.875 1.75-1.586zm20.316 2.147l3.172-2.12c.583.611 1.408 1.199 2.474 1.764l-.355 1.408c3.582 7.538 2.994 14.957-1.764 22.258L51.12 55.02c-.465.218-.387-1.559.233-5.333l-4.088.82-1.573 5.538-1.763 1.764c-.884-.228-1.71-.816-2.475-1.764l.356-4.95a44.626 44.626 0 0 1 1.914-4.415l-.178-1.737.67-1.681 1.572-.957 1.668-4.977 1.422-2.474zm.137 10.732l2.351-.191-.861-3.364-1.49 3.555zM63.096 32.72c2.716-.31 5.259.496 7.629 2.42.018 2.324-1.099 3.755-3.35 4.293.082 1.494-.169 3.108-.752 4.84v.56c.11 1.158-.014 2.584-.37 4.28l-.177 1.12v1.3l-.191.56.191 1.299v1.49c-1.294 3.39-2.784 3.951-4.47 1.681l-.37.178a7.83 7.83 0 0 0-.191-2.037c.182-.71.182-1.517 0-2.42.164-1.039.228-2.283.191-3.732v-5.578c-.045-.684.014-1.495.178-2.434-2.197.2-3.623-.73-4.28-2.789.967-2.598 2.954-4.275 5.962-5.031zM84 32.68c.757-.046 1.518.173 2.283.656l.656 3.76.165.656c.009.465.118 1.012.328 1.64.036.775.2 1.705.492 2.79a.761.761 0 0 0 .164.492v.82l.328.82c-.01.256.046.53.164.82l.164.971.164.657c.957-1.559 1.012-3.304.164-5.237l.492-.984c1.24-1.112 2.603-1.55 4.088-1.312l.82-.82c.128.017.238.127.329.327.237 1.614.182 3.528-.164 5.743.255.473.528 1.125.82 1.955.328.72.602 1.595.82 2.625l.164.328.164.656c.392-.492.775-1.148 1.149-1.969l1.148-2.297c.155-.437.374-.925.657-1.463l.164-.328.164-.492.164-.328.164-.492c.364-.556.688-1.267.97-2.133l.329-.656.328-.328.164-.493.328-.492.328-.656c.438-.747 1.094-1.4 1.969-1.955-.037 1.112-.31 2.31-.82 3.596.127 2.132-.31 4.315-1.313 6.548-.684 4.75-3.14 8.791-7.37 12.127-.227-.72-.61-1.595-1.148-2.625l-.164-.492-.328-.328c.073-.911-.141-1.891-.642-2.94a10.855 10.855 0 0 0-.328-1.64c-.438.73-.82 1.714-1.149 2.953l-.328.328v.492c-.173.365-.447.798-.82 1.3l-.328.82c-.365.3-.803.738-1.313 1.312h-1.312c-.684-1.185-1.122-2.602-1.313-4.252-.045-.437-.205-.875-.478-1.312.109-1.723-.22-3.637-.985-5.743-.036-.993-.255-2.137-.656-3.431 0-.547-.11-1.149-.328-1.805l-.164-.984-.164-1.149c-.73-.847-1.167-1.882-1.313-3.103.31-1.14 1.021-2.124 2.133-2.953zm24.965.52l.369-.561c.401 0 .893.063 1.477.191h.56l1.299.178.37.191.546-.191h2.037l1.121-.37c2.953 1.067 3.755 2.612 2.406 4.635-1.157.073-2.579.32-4.265.739h-1.477l-.738.177-.56.192-.192 3.336-.178.369v.547l1.846.369 2.037.383h.56l.93-.383c4.23 1.55 4.043 3.158-.56 4.826-.802-.173-1.791-.173-2.967 0h-1.477l-.369.178h-.56l-.37 1.299-.369 1.476v.56l-.177.37v.56c.81.128 1.795.374 2.953.739l1.49.178c.438.993 1.176 1.859 2.215 2.597-.027.702-.274 1.445-.738 2.229-2.006.191-4.166-.119-6.48-.93h-.561c-1.149.173-2.32.05-3.514-.37-.164-1.239-.105-2.784.178-4.634l.191-1.299.56-3.144c-.446-.884-.633-1.996-.56-3.336.811-.985 1.303-2.279 1.477-3.883.09-1.103-.155-2.215-.739-3.336.192-.501.502-.993.93-1.477l.178-.369c.373-.501.747-1.18 1.12-2.037zm24.91-.438c1.313-.128 2.935.064 4.867.574l.342.205.67-.205c.337.602.838 1.121 1.504 1.559.565.847 1.349 1.622 2.351 2.324l1.012 1.353c.255.328.647.716 1.176 1.162.31.666.756 1.377 1.34 2.133l.177.574.329.383c-.019.137.036.27.164.397.346 1.276.405 2.693.177 4.252-.938 6.28-4.525 9.442-10.76 9.488-.5.082-1.057.278-1.667.588a5.93 5.93 0 0 0-1.86.191h-.998l-.506.192h-.506c-.355-.192-.802-.515-1.34-.971-.182-1.094-.182-2.384 0-3.87.347-.455.848-.842 1.505-1.161-.082-1.167.086-2.457.505-3.87.019-.637.133-1.476.342-2.515l.328-3.104.178-3.295.164-2.119c-.118-.291-.287-.487-.506-.588.028-1.212.365-2.438 1.012-3.677zm3.8 6.193l-.177 3.104-.164.382v1.163l-.164.587c0 .757-.114 1.66-.342 2.707v.575c-.2.701-.31 1.54-.328 2.515 2.707 2.735 5.113 2.416 7.219-.957.465-5.14-1.55-8.5-6.043-10.076zm21.848-6.22c4.922 1.667 7.566 5.368 7.93 11.1-1.44 6.563-5.405 11.253-11.894 14.07-.675.072-1.4.008-2.174-.192-3.874-1.932-5.328-5.173-4.362-9.72l-.793-2.38 1.381-3.568.205-.588.588-1.586.205-.601 1.983-2.57.396-.397 1.04-2.612.751-.273c.556.72 1.609.624 3.159-.287h1.189c.137-.037.269-.169.396-.397zm-1.189 6.931c-.319.72-.848 1.45-1.586 2.188l-.984 1.585-.602.793c-.118.875-.05 1.933.205 3.172-.264 1.64 0 3.29.793 4.95 2.58-1.896 4.43-4.603 5.55-8.122-.418-2.67-1.544-4.192-3.376-4.566z"/><path fill="#EE6344" d="M55.207 1.459l1.326-.752c1.121.182 2.384.624 3.787 1.326l-.752 3.035v.575l-.957 3.226-.191.37-.191.573-.178.944-.957 3.418-.192.752-.369 1.34-.191.369-.383 1.326v.574l-.383 1.326c.82.183 1.832.31 3.035.383.347.11.853.173 1.518.192l.574.191h.56l.958.178h.752l.574.191 1.517-.369c1.75.62 3.204 1.69 4.362 3.213l-1.135 1.709c-1.303-.137-2.82-.01-4.553.383l-.383-.192h-.751l-2.475-.383c-.766.01-1.65-.114-2.652-.369h-.575l-.943-.191h-.574c-.693-.173-1.513-.237-2.461-.192l-2.27 1.327c-.173-.529-.3-1.162-.383-1.9-.71-1.076-1.03-2.339-.957-3.788.493-.765.875-1.65 1.149-2.652 1.176-1.65 1.932-3.737 2.27-6.262l.765-1.9.191-1.326c.41-.921.725-2.06.944-3.418l.191-.37-.191-1.34c.191-.355.383-.86.574-1.517zm19.77-.752c1.184.328 2.579.451 4.183.37l.738.177h1.641l.356.178c.546.09 1.157.09 1.832 0l2.01.369.546.178c.401.492.825 1.162 1.272 2.01.155 2.16-1.486 3.194-4.922 3.103l-.547 3.65-.191.356v.547l-.178.738-.178 1.996-.191.738v.725l-.178.547-.178.724v.547l-.191.916v.725l-.178.738c.784 1.404 2.06 2.62 3.828 3.65a8.647 8.647 0 0 1-.547 1.641c-.893.337-1.987.456-3.281.356l-1.271.191-1.463.178a1.046 1.046 0 0 0-.178-.725l-4.197-1.094-.547-.191-.37-.178-.546-.178-2.01-.738-.725-.547c.064-1.84.976-3.24 2.735-4.197.11 1.431 1.508 1.86 4.197 1.285.182-.875.305-1.969.37-3.281l.177-.37.178-1.818.191-.546.356-3.104.369-1.094c.027-.875.21-1.91.547-3.103v-.547c-1.167 0-2.443.305-3.829.916h-.546a7.203 7.203 0 0 0-.739-2.01c-.045-1.476.506-2.752 1.655-3.828zM90.07 1.924L91.314.68c1.258.218 2.325.93 3.2 2.132l-.534 2.83v.534l-.177.533v.533l-.178.711v.711l1.941-.71c2.142-1.532 4.685-2.243 7.63-2.134-.921 3.437-3.346 5.683-7.274 6.74.41.985 1.121 2.17 2.133 3.555l.355.52.178.355c.027.119.146.237.355.356l.178.533.356.533c.027.119.145.237.355.356.21.665.56 1.494 1.053 2.488l.177.71c.037.511.215 1.1.534 1.764l-.356 1.067c-.073.364-.31.78-.71 1.244l-1.053-.355-.356-.178c-.474-.748-1.185-1.518-2.133-2.31l-.177-.52a7.61 7.61 0 0 0-1.067-1.422l-.533-1.244c-.32-.602-.788-1.254-1.408-1.955l-.178-.534-.355-.533-.356-.355-.355-.698c-.52 1.085-.816 2.325-.89 3.72-.345.6-.7 1.371-1.065 2.31l-.178.533c-.365.474-.656 1.062-.875 1.764l-.356.177-.177.356-.356.355c-.237.538-.533.775-.889.711l-.355-1.6c-.027-.747-.205-1.69-.533-2.83.273-.801.392-1.75.355-2.843l.178-1.422.178-1.053.177-.355.178-1.244c-.601-.866-.66-1.814-.178-2.844l-.355-1.586c.319-.593.852-1.126 1.6-1.6.018-.62.136-1.271.355-1.955-.036-.674.078-1.444.342-2.31V3.7c.055-.501.173-1.094.355-1.777zm17.336-.725l.37-.56c.4 0 .893.063 1.476.191h.56l1.3.178.368.191.547-.191h2.037l1.122-.37c2.953 1.067 3.755 2.612 2.406 4.635-1.158.073-2.58.32-4.266.739h-1.476l-.739.177-.56.192-.192 3.336-.177.369v.547l1.845.369 2.037.383h.561l.93-.383c4.229 1.55 4.042 3.158-.56 4.826-.803-.173-1.792-.173-2.968 0h-1.476l-.37.178h-.56l-.369 1.299-.37 1.476v.56l-.177.37v.56c.811.128 1.796.374 2.953.739l1.49.177c.438.994 1.176 1.86 2.215 2.598-.027.702-.273 1.445-.738 2.229-2.005.191-4.165-.119-6.48-.93h-.561c-1.148.173-2.32.05-3.514-.37-.164-1.239-.105-2.784.178-4.634l.191-1.299.561-3.144c-.447-.884-.633-1.996-.56-3.336.81-.985 1.303-2.279 1.476-3.883.091-1.103-.155-2.215-.738-3.336.191-.501.501-.993.93-1.477l.177-.369c.374-.501.748-1.18 1.121-2.037z"/></g></svg>