<svg xmlns="http://www.w3.org/2000/svg" width="80" height="80"><g fill="none"><path fill="#EE6344" d="M54.5 68.356v-9.01a1 1 0 0 0-1.402-.915c-3.45 1.516-9.65 2.274-18.598 2.274-8.949 0-15.148-.758-18.598-2.274a1 1 0 0 0-1.402.916v9.072a1 1 0 0 0 .28.694C17.607 72.038 24.014 73.5 34 73.5c9.98 0 16.696-1.46 20.146-4.38a1 1 0 0 0 .354-.764z"/><rect width="9" height="24" x="64" y="52" fill="#EE6344" rx="2"/><path stroke="#484848" stroke-linecap="round" stroke-linejoin="round" stroke-width="3" d="M69 9v43H57V27A19.5 19.5 0 0 1 69 9zm-6 43h6v19h-6zm-12-5.818V66c-2.477 1.667-7.977 2.5-16.5 2.5S20.477 67.667 18 66V46.182"/><path stroke="#484848" stroke-linecap="round" stroke-linejoin="round" stroke-width="3" d="M25 46h-4.08C13.232 46 7 39.607 7 31.92 7 24.232 13.232 18 20.92 18c.627 0 1.245.041 1.85.122C25.153 13.872 29.7 11 34.92 11c5.219 0 9.767 2.872 12.15 7.122.605-.08 1.222-.122 1.85-.122 3.336 0 6.398 1.174 8.796 3.13M57 43.362A13.692 13.692 0 0 1 48.92 46H44"/><path stroke="#484848" stroke-linecap="round" stroke-linejoin="round" stroke-width="3" d="M37.971 40.496c5.105-1.659 7.9-7.142 6.24-12.248m-12.247-6.24c-5.105 1.659-7.9 7.142-6.24 12.248"/></g></svg>