<svg xmlns="http://www.w3.org/2000/svg" width="80" height="80"><g fill="none"><path fill="#EE6344" d="M43.192 44.772C54.566 41.93 60 41.392 60 35.042c0-6.352-10.297-11.5-23-11.5s-23 5.148-23 11.5c0 3.152 2.082 8.537 6.192 10.615 4.17 2.107 10.616 2.211 23-.885z"/><path stroke="#484848" stroke-linecap="round" stroke-linejoin="round" stroke-width="3" d="M49.263 19.072C25.763 12.572 6 24.5 6 35s6 17 17.763 18.572C35.527 55.144 46.5 46.5 74.5 48c0-4-3-10-14.5-10H42a5 5 0 0 1 0-10h25c-1.5-1.5-5.64-5.582-17.737-8.928z"/><path stroke="#484848" stroke-linecap="round" stroke-linejoin="round" stroke-width="3" d="M6 35v10c0 12.593 4.555 16.093 18.055 17.593s22.5-6.5 50.5-5V48.5M67 28v11M22.5 25L12 38.5m20-.5l-8 10.5M37.5 43L34 47.5m.5-25l-18 23"/></g></svg>