<svg xmlns="http://www.w3.org/2000/svg" width="80" height="80"><g fill="none"><rect width="50" height="13" x="15" y="67" fill="#EE6344" rx="2"/><path stroke="#484848" stroke-linecap="round" stroke-linejoin="round" stroke-width="3" d="M20 62h40v13H20z"/><path stroke="#484848" stroke-width="3" d="M47 61.996l14.081-13.814a4.5 4.5 0 1 1 6.364 6.364l-7.45 7.45m-41.459-5.46a5 5 0 0 0 0-7.072c-.64-.639-.722-4.243-1.536-4.464-.773-.21-3.22-.168-4 0-.91.195-.829 3.758-1.536 4.464a5 5 0 1 0 7.072 7.072zM45 14a3.58 3.58 0 0 1 3.558 3.976l-1.337 12.036a2.235 2.235 0 0 1-4.442 0l-1.337-12.036A3.58 3.58 0 0 1 45 14z"/><rect width="10" height="6" x="55" y="18" stroke="#484848" stroke-width="3" rx="3"/><path stroke="#484848" stroke-width="3" d="M29.28 5h2a3 3 0 0 1 0 6h-.5c-2.278 0-4.501.7-6.368 2.007L22.28 14.5a1.449 1.449 0 0 1-2.107-1.874l1.736-3.224A8.371 8.371 0 0 1 29.28 5z"/><path stroke="#484848" stroke-linecap="round" stroke-width="3" d="M30.703 61.576A6.973 6.973 0 0 1 29 57v-2h2c3.39 0 6.218 2.41 6.862 5.61"/><path stroke="#484848" stroke-width="3" d="M35 40v2a7 7 0 0 1-7 7h-2v-2a7 7 0 0 1 7-7h2z"/><path stroke="#484848" stroke-linecap="round" stroke-width="3" d="M45 14v-4M35 7h3"/><g stroke="#484848" stroke-width="3"><path d="M60.605 39.108l-1.285-1.532a3 3 0 0 1 4.596-3.857l.321.383a11.103 11.103 0 0 0 5.63 3.588l2.515.674a1.449 1.449 0 0 1-.081 2.818l-3.586.742a8.371 8.371 0 0 1-8.11-2.816z"/><path stroke-linecap="round" d="M58.46 33.44l-1.928-2.298"/></g><path stroke="#484848" stroke-width="3" d="M44.5 42v-2a2.5 2.5 0 1 1 5 0v2h2a2.5 2.5 0 1 1 0 5h-2v5.5h-5V47h-2a2.5 2.5 0 1 1 0-5h2zm.5 5h4M13.177 25.214a3.621 3.621 0 1 1 4.037-4.037 5.63 5.63 0 0 1 6.813 3.904 3.501 3.501 0 0 1 4.295 5.465l-5.657 5.657a3.5 3.5 0 0 1-5.541-4.164 5.623 5.623 0 0 1-3.947-6.825z"/><path stroke="#484848" stroke-linecap="round" stroke-width="3" d="M26 33l2 2"/></g></svg>