<svg xmlns="http://www.w3.org/2000/svg" width="153" height="174"><g fill="none" fill-rule="evenodd"><path fill="#000" fill-rule="nonzero" d="M42.5 74c-8 2-11 7.333-9 16L24 91.5c-2.333-15 3.833-22.833 18.5-23.5v-6C33 56 28 77.5 17.5 77.5 10.5 77.5 5 74 1 67l8.5-11.5c1.667 7.667 5.667 11.5 12 11.5 9.5 0 5-20.5 21-14V25C42.5 10.495 67.068 0 97 0s54.5 10.495 54.5 25v124c0 14.505-24.568 25-54.5 25s-54.5-10.495-54.5-25V74zm54-30c26.954 0 48.5-9.204 48.5-19S123.454 6 96.5 6 48 15.204 48 25s21.546 19 48.5 19zm-.2 46.915c17.8 0 36.63 15.908 46.246-11.604 11.526-32.978-29.94-10.424-45.997-10.397-16.456.028-58.246-23.478-46.496 10.397 9.598 27.67 28.257 11.604 46.246 11.604z"/><path fill="#000" fill-rule="nonzero" d="M71.977 75.549c-2.146-.98-4.271-1.88-6.277-2.53-.28 3.533 1.252 6.82 4.668 10.022 2.982 2.796 5.792 3.122 8.805.706a17.945 17.945 0 0 0 2.581-3.687 98.988 98.988 0 0 1-3.805-1.702 4 4 0 1 1-5.972-2.81zm-10.203-3.466c-3.623-.468-6.483.545-7.774 4.417C57 48 90 90 93.5 76c0 5.67-2.897 6.668-7.136 5.647C81.951 89.121 74.663 91.905 64.5 90c2.6-.193 4.949-.65 7.047-1.37-1.313-.57-2.621-1.458-3.915-2.67-4.488-4.209-6.47-8.897-5.858-13.877z"/><path fill="#000" d="M115.081 78.194c-1.315.676-2.605 1.309-3.85 1.84a17.955 17.955 0 0 0 2.596 3.713c3.013 2.416 5.823 2.09 8.805-.706 3.577-3.353 5.087-6.798 4.616-10.522-2.158.642-4.41 1.67-6.662 2.808a4.001 4.001 0 1 1-5.505 2.867zm-8.55 3.275c-2.462.34-4.56-.254-6.071-2.469 10 3 35.5-30.5 38.54-2.5-2.045-3.506-4.753-4.735-7.806-4.666.708 5.073-1.263 9.847-5.826 14.125-1.294 1.213-2.602 2.1-3.915 2.67 2.098.722 4.448 1.178 7.047 1.371-10.243 1.92-17.566-.923-21.968-8.53zM98.46 71.5c-1.5 4 1.5 6 4 5.5-2.5-.5-4-2.712-4-5.5z"/><ellipse cx="96.5" cy="25" fill="#EE6344" rx="23.5" ry="10"/></g></svg>