<svg xmlns="http://www.w3.org/2000/svg" width="218" height="48"><g fill="none" fill-rule="evenodd"><g transform="translate(-6)"><path fill="#000" fill-rule="nonzero" d="M41.655 20.414v20.69c0 4-6.777 6.896-15.034 6.896-8.257 0-15.035-2.895-15.035-6.897V6.897C11.586 2.895 18.364 0 26.621 0c8.257 0 15.034 2.895 15.034 6.897v7.724c4.414-1.793 3.173 3.862 5.793 3.862 1.747 0 2.85-1.058 3.31-3.173l2.345 3.173c-1.103 1.93-2.62 2.896-4.551 2.896-2.897 0-4.276-5.93-6.897-4.276v1.656c4.046.184 5.747 2.344 5.104 6.482l-2.621-.413c.552-2.391-.276-3.862-2.483-4.414zm-15.034-8.276C34.056 12.138 40 9.598 40 6.897c0-2.703-5.944-5.242-13.38-5.242-7.435 0-13.379 2.54-13.379 5.242s5.944 5.24 13.38 5.24zm-.056 12.942c4.91 0 10.105 4.389 12.758-3.201 3.18-9.097-8.26-2.876-12.689-2.868-4.54.008-16.068-6.477-12.826 2.868 2.648 7.633 7.795 3.201 12.757 3.201z"/><path fill="#000" fill-rule="nonzero" d="M19.856 20.841a16.723 16.723 0 0 0-1.732-.698c-.077.975.345 1.881 1.288 2.765.822.771 1.598.861 2.429.195.274-.3.511-.64.712-1.018-.338-.14-.69-.3-1.05-.47a1.103 1.103 0 1 1-1.647-.775zm-2.815-.956c-1-.129-1.788.15-2.144 1.218.827-7.862 9.93 3.725 10.896-.137 0 1.564-.799 1.839-1.968 1.557-1.218 2.062-3.228 2.83-6.032 2.305a7.737 7.737 0 0 0 1.944-.378 3.827 3.827 0 0 1-1.08-.737c-1.238-1.16-1.785-2.454-1.616-3.828z"/><path fill="#000" d="M31.747 21.57c-.363.187-.72.362-1.062.508.201.38.44.722.715 1.025.832.666 1.607.576 2.43-.195.986-.925 1.403-1.875 1.273-2.903-.595.177-1.216.461-1.838.775a1.104 1.104 0 1 1-1.518.79zm-2.359.904c-.68.094-1.258-.07-1.675-.68 2.759.827 9.793-8.415 10.632-.69-.564-.968-1.311-1.307-2.154-1.288.196 1.4-.348 2.717-1.607 3.897-.357.334-.717.58-1.08.737a7.737 7.737 0 0 0 1.944.378c-2.825.53-4.845-.255-6.06-2.354zm-2.227-2.75c-.413 1.104.414 1.655 1.104 1.517-.69-.138-1.104-.748-1.104-1.517z"/><ellipse cx="26.621" cy="6.897" fill="#EE6344" rx="6.483" ry="2.759"/></g><path fill="#000" d="M142.31 34.93l-2.134-.218-.208.109c-.87-.217-1.509-.536-1.917-.958-.923-.757-1.383-1.323-1.383-1.698 0-.066-.073-.352-.218-.86v-.098l.109-.218c-.092 0-.303-.282-.632-.849v-.316c0-.072.246-.286.74-.642l-.108-.533c1.245-.922 2.098-1.383 2.559-1.383v.109c0 .283-.25.85-.75 1.699v.108c.15 0 .543.106 1.175.316l1.809-.207v.108a8.828 8.828 0 0 0 1.383-.325l.741.108c1.028-.164 2.306-.803 3.835-1.916.434-.362.86-.928 1.274-1.698.356-.376.534-.731.534-1.067-3.947-.85-6.075-1.383-6.384-1.6 0 .145-.073.217-.217.217-2.497-.599-3.95-1.165-4.359-1.698-.302 0-.836-.355-1.6-1.067-.185-.02-.573-.48-1.167-1.382-.17 0-.348-.247-.533-.741-.283 0-.425-.356-.425-1.067 0-1.185.352-2.215 1.057-3.09a7.037 7.037 0 0 1 1.493-1.808c.335-.335.55-.688.642-1.057 1.087-.783 1.726-1.175 1.917-1.175 1.601.165 2.77.448 3.508.85 1.634.868 2.451 1.685 2.451 2.448v.85h-.217v.108l.108.218-.533.099c-.231 0-.761-.283-1.591-.85-1.226.5-1.97.856-2.234 1.067-.059.336-.52.76-1.383 1.274 0 .118-.356.474-1.067 1.066-.429.645-.643 1.034-.643 1.166 1.423.638 3.765 1.277 7.026 1.916 2.952.71 4.76 1.422 5.426 2.133 2.134 1.06 3.202 1.873 3.202 2.439h-.218c0-.185-.389-.536-1.166-1.057h-.218v.099c.323.87.82 1.439 1.493 1.709 0 .092.177.411.533.957-.145.02-.217.09-.217.208l.109.958c0 .54-.425.964-1.275 1.274 0 .23-.32.586-.959 1.067 0 .355-.57.852-1.71 1.49 0 .139-.46.564-1.383 1.275-.21.085-.316.194-.316.325h-.109l-.207-.108c0 .513-.675 1.01-2.026 1.491 0-.217-.073-.326-.217-.326-.23.323-.62.537-1.166.642l-.643-.109h-.208a.834.834 0 0 0-.424.109l-.218-.109a.83.83 0 0 1-.425.109l-.207-.109-.11.218zm20.545-1.175h-.217c-.732 0-1.229-.106-1.493-.316l-.425.109c-.111 0-.323-.142-.632-.426l-.217.1c-.494-.113-.956-.537-1.384-1.275l-.217.109h-.208c-1.489-1.224-2.233-2.04-2.233-2.45-1.206-2.488-1.809-5.325-1.809-8.512-.052 0-.161-1.027-.326-3.081h.109c-.145-.363-.217-.61-.217-.74.052-.429.125-.643.217-.643l-.642-3.081c.131 0 .24-.32.326-.958.283 0 .425-.072.425-.217v-.109h.108l.317.218c.151 0 .362-.214.632-.643.079 0 .188-.036.326-.108v.217l.534-.109c0 .218.033.326.099.326.098-.072.276-.108.533-.108 0 .164.214.27.643.316v.109l-.109.207c.145 0 .217.072.217.217h.1c.072 0 .358-.073.859-.217h.316v.75l-.217.316.326.217-.326 1.59c.026.145.098.218.217.218-.072.83-.108 1.432-.108 1.807v.109l.108 1.056h-.108l.108.218v.108c0 1.14.105 3.194.316 6.163h-.108c.072.164.217.734.435 1.708l-.11.534c.14.23.208.44.208.632l-.098.217c.349 0 .523.355.523 1.066.119 0 .264.21.435.633.35 0 1.199-.85 2.55-2.548.783-1.324 1.564-3.596 2.342-6.814v-1.492l-.11-.74h.11l-.11-.208c0-.164.037-.31.11-.434-.211-2.779-.316-4.444-.316-4.998a3.21 3.21 0 0 1 .958-.849v-.316h.207v.207h.317c.362-.494.681-.74.958-.74l.109.207.218-.099h.207v.316h.109l.533-.108.642.424v.326h.425v-.217c.14.073.244.109.317.109.138-.073.244-.109.316-.109.5.46.75 1.027.75 1.698-.072 0-.108.037-.108.109.139.027.208.099.208.217-.211.165-.316.412-.316.741h-.11l-.206-.642c-.146.026-.218.099-.218.217v1.492c0 .671-.036 1.488-.109 2.449l.109.523c-.441 2.87-.866 4.787-1.275 5.748-.073 0-.109.036-.109.109v.958l.11 1.057c-.284 0-.426.286-.426.859h-.108c0 .23.141 1.01.424 2.34h-.108l.108.208v.533a.83.83 0 0 1-.108.424c.072.139.108.244.108.316-.158 0-.335-.352-.533-1.056h-.1c0 .065-.035.098-.108.098.139.751.317 1.498.534 2.242-.073.139-.109.244-.109.316-.112 0-.359-.744-.741-2.231h-.108l-.11.207v.108h.218v.642h.208c0 .073-.037.109-.11.109l.11.207v.316l-.208-.098c0 .065-.036.098-.108.098-.218-.421-.468-1.201-.752-2.34h-.207c-.099 0-.24.32-.425.958-.138 0-.494.391-1.067 1.175l.108.207c-.19.237-.688.451-1.492.642-.494.409-.74.692-.74.85zm6.275 1.708h-.316c-.073-.52-.145-.84-.218-.958.073-.118.11-.296.11-.533h.216v.424l-.108.208c.138.072.244.108.316.108v.109l-.208.316c.139.026.208.1.208.217v.11zm24.943 2.211l-.425-.207a.83.83 0 0 1-.326.1l-.426-.1a.82.82 0 0 1-.316.1c0-.185-.25-.327-.75-.426-.159-.415-.442-.767-.85-1.056-.422-.764-.742-1.827-.959-3.19l.108-.218c-.072-.138-.108-.243-.108-.316h.108c-.125-.23-.266-1.224-.425-2.982h.11c-.132-.428-.488-3.76-1.068-9.994-.073 0-.178-.57-.316-1.708 0-.073.036-.179.109-.317 0-.737-.429-1.554-1.285-2.449 0-.046-.178-.543-.534-1.491.08-.316.33-.563.751-.74h.109v.207c.5-.139.784-.208.85-.208h.109v.642h.207l-.108.207v.109c.144 0 .217.036.217.109l.85-.534h.108v.11c-.072.13-.109.236-.109.315.073 0 .11.036.11.109.138-.073.243-.109.315-.109.62.04 1.259.606 1.918 1.699 0 .467.247 1.178.741 2.133.5 4.55.75 7.032.75 7.446h.11c1.614-.217 2.82-.326 3.616-.326h.425c.64 0 .959-.388.959-1.165h.109l-.109-.217v-.099c.356 0 .711-2.13 1.067-6.39-.145 0-.217-.069-.217-.207v-.642c.382 0 .665-.105.85-.316h.217l.1.533c-.067 0-.1.033-.1.099l.207.109c0-.073.037-.11.11-.11l-.11-.206v-.11c.468 0 .752-.213.85-.64h.218c0 .078.036.187.109.325l.207-.108h.109c0 .236.036.414.109.533l.207-.11c.145.021.217.093.217.218v.099h-.217v.109h.326l.099-.208a.834.834 0 0 1-.099-.325h.208c.428.375.642.694.642.957h.316l.217-.109-.108-.207c.02-.144.09-.217.207-.217.528 0 .814.109.86.326v.207c0 .145-.108.218-.326.218.284.737.425 1.198.425 1.382-.35 1.41-.524 3.18-.524 5.314l.208.108c0-.072.036-.108.109-.108 0 .144.036.216.108.216l.425-.216v.108c0 .211-.283.352-.85.425v.642h.741l1.384-.317c0 .067.036.1.108.1 0-.139.284-.244.85-.317v.109c0 .092-.46.34-1.383.74 0 .284-.639.603-1.917.959v.217l.534-.109c.072 0 .108.036.108.109.139-.073.244-.109.316-.109h.218v.109c-.857.105-1.285.247-1.285.424 0 .211-.036.317-.109.317l.11.217c-.14.599-.209.951-.209 1.056l.1.643c0 .651-.211 2.28-.633 4.888h-.217v-.207h-.099v1.382h-.326l-.425-.316c0 .119-.178.438-.534.958 0 .757-.21 1.182-.632 1.274 0 .21-.356.316-1.068.316h-.108c0-.21-.106-.316-.317-.316h-.108v-.85a.796.796 0 0 0-.11-.424c0-.072.037-.109.11-.109 0-.144-.036-.217-.11-.217.166-2.693.308-4.039.426-4.039l-.099-.217c.139-.488.208-.912.208-1.274v-.85l.108-.533c-.17-.138-.313-.207-.425-.207-1.047.21-1.759.385-2.134.523v.642c-.184 0-.432.391-.741 1.175l-.959 2.123c-.138.073-.244.109-.316.109v.85c0 .17-.178.49-.534.957 0 .421-.072.633-.217.633l.108.217c-.566.605-.85.961-.85 1.067v.533l.11.207c-.238 0-.38.141-.425.424zm5.109-14.04c.335-1.072.583-1.642.74-1.708a2.44 2.44 0 0 0-.315-.74l.207-.317h-.099c-.118 0-.263.247-.435.741l.109.533c-.033.283-.138.425-.316.425v.108l.109.208h-.218v.533c.027.145.099.217.218.217zm2.658 8.721c.171 0 .277-.356.316-1.067a.817.817 0 0 1-.099-.316h.208v-.424c0-.145-.07-.218-.208-.218l.099-.533V28.74c0-.072.036-.109.109-.109l-.109-.217c0-.072.036-.178.109-.316l-.208-.958c.066 0 .099-.036.099-.108h-.207v.75a.83.83 0 0 1-.11.425c0 .072.037.108.11.108l-.11.524v.217l.11.74h-.11l.11.218v.208c0 .144-.073.217-.218.217.145.23.218.444.218.642v.523l-.11.751zm-.742.958c.14-.533.208-.853.208-.958 0-.072-.036-.109-.109-.109l.11-.533v-1.165l-.11-1.284h.11l-.11-.208v-.74c0-.073.037-.11.11-.11-.073-.091-.11-.342-.11-.75-.138.027-.207.1-.207.218v.74c0 .409-.036.66-.109.75.073.383.11.702.11.96v3.189h.107zm-4.792-2.667c0-.23.247-.724.74-1.481l.535-1.067v-.217h-.109c-.408.455-.728 1.024-.958 1.709-.047 0-.188.177-.425.533v.523h.217zm-2.451 1.709c.422-.461 1.202-1.633 2.342-3.516 0-.066.036-.099.109-.099v.316h.208c0-.296.072-.652.217-1.066h-.109v.108c-.072 0-.108-.036-.108-.108-1.167.427-1.839.641-2.017.641-.48-.21-.764-.316-.85-.316v.316c0 .158.034.3.1.425 0 .072-.033.109-.1.109.067.322.136 1.386.208 3.19zm16.803 4.593h-.632c0-.138-.214-.28-.643-.425-1.067-1.132-1.6-4.075-1.6-8.829-.066 0-.1-.14-.1-.424 0-.073.034-.109.1-.109l-.1-.533v-.958c0-.066.034-.099.1-.099a.828.828 0 0 1-.1-.326l.1-2.548h.108c0-.072-.036-.109-.108-.109.092-.96.164-1.527.217-1.698 0-.073-.036-.109-.11-.109 0-.072.037-.178.11-.316.073-1.79.108-3.21.108-4.256 0-1.159-.141-2.65-.424-4.474.31-.566.629-.85.958-.85.409 0 .656.179.741.534.52.119.982.474 1.384 1.067 0 .19.073.401.217.632l.208-.1h.108c.139.969.208 1.5.208 1.591h.217v-.207c.303 0 .481.493.534 1.481.099 0 .24.497.425 1.49.072 0 .109.037.109.11 0 .072-.037.108-.11.108l.317 2.232a5.311 5.311 0 0 0-.108.958v1.165c0 .165-.034.31-.1.435a.768.768 0 0 1 .1.316c-.257 2.62-.468 3.931-.633 3.931l.109.75v1.916c0 .158-.037.3-.109.425a.834.834 0 0 1 .109.425v.108c0 .139-.073.208-.218.208 0-.073-.036-.11-.109-.11v.11l.218.315v.218l-.425 3.407-.534.85c-.236 0-.45.104-.642.315 0 .073.036.109.109.109l-.11 1.067v.207zm-34.342-21.831a37.305 37.305 0 0 1 2.777-.92h.095v.18c-.31.018-.465.081-.465.19-.556.034-.834.158-.834.37h-.275c-.206 0-.421.091-.645.274h-.653v-.094zm10.58 14.052h.095c0-.132-.092-.318-.275-.56v-.274l.086-.19-.55-.927a18.766 18.766 0 0 0-3.525-2.775c-1.29-.762-1.938-1.195-1.943-1.298-.51-.217-1.87-1.048-4.076-2.491-1.209-.682-2.04-1.392-2.493-2.132.029-.246.12-.369.275-.369 0-.412 1.889-1.08 3.494-1.739.928-.252 1.393-.467 1.393-.644 1.599-.533 2.493-.874 2.682-1.023.929-.206 1.393-.36 1.393-.464.138 0 .261.218.37.654l-.095.18c0 .126.092.189.275.189v.094c-.183 0-.275.092-.275.275.063.31.25.71.56 1.203h.274l-.095-.189h.276c.27-.802.487-1.203.653-1.203v-.18c0-.304.092-.613.275-.928a.722.722 0 0 1-.094-.37c-.029-.211-.522-.612-1.48-1.202l-1.572-.464h-.095c-.424 0-.885.094-1.384.283-1.737.367-2.849.736-3.336 1.109l-.19-.095h-.18c-.315.246-.717.4-1.204.464l-3.241 1.478c-1.336.687-2.078 1.398-2.227 2.13 0 .092.155.493.464 1.203l-.094.19c0 .051.123.326.37.825 0 .166.154.352.464.558 0 .178.278.547.834 1.108.693.419 1.218.82 1.573 1.203.62.109.929.264.929.464 1.215.665 1.894 1.097 2.037 1.298a50.596 50.596 0 0 1 4.815 3.05c1.05.538 1.574.91 1.574 1.117-.637.51-2.52.911-5.649 1.203 0-.063-.032-.095-.095-.095a.725.725 0 0 1-.37.095h-3.61c-.986 0-1.48.37-1.48 1.108v.276c.236 0 .39.217.465.652l.55.37c.264.183.45.275.56.275.349.246.595.369.739.369 0 .315.587.533 1.762.654v.085l-.095.189c.505 0 .814.06.93.18h.274l.559-.085.18.086a28.94 28.94 0 0 0 2.313-.275c0 .063.032.094.095.094a16 16 0 0 0 3.705-.928c.396-.091.737-.492 1.024-1.202h.644l.19-.645v-.283c0-.144.762-1.275.573-1.681z"/><path fill="#000" fill-rule="nonzero" d="M89.027 24.521l.029-.02c.01.058.046.082.104.071-.047-.244.042-.626.268-1.147.044-.12.045-.287.004-.501l-.036-.187-.096.019c-.081.016-.182.5-.301 1.45l-.288.058.074.383.096-.02.048-.034c-.003.208-.075.659-.218 1.35l.016.6.017.089.096-.02c.14-1.306.207-1.984.198-2.031l-.011-.06zm1.393-7.445c.012-.267.067-.41.167-.43l.095-.02a.78.78 0 0 0 .285.443l.023.122a.38.38 0 0 1 .113-.048l.02.098a16.917 16.917 0 0 0-.218 1.933l.096-.02c.145-.028.236-.577.272-1.647.377-.076.61-.722.696-1.937l.192-.039c.026.137-.019.579-.135 1.325.157-.032.274.077.352.327l-.003.501c.1.177.183.26.247.247l.053 1.786c.038.196.15.276.335.238l.017.09c.046 2.281-.032 4.924-.233 7.93-.209 1.116-.614 2.728-1.217 4.838-.464 1.291-.728 1.944-.792 1.957l-.53.3c-.028-.142-.204-.206-.526-.19.029.155-.264.312-.878.473a2.147 2.147 0 0 0-1.012-.696c-.017-.089-.131-.165-.342-.227l-.087.018.037.195c-.535-.398-.811-.642-.828-.731-1.264-1.834-1.98-3.187-2.147-4.061a30.024 30.024 0 0 0-.797-2.638l.06-.206-.524-1.692.096-.02-.133-.176-.333-1.73-.27-.937-.384.077c.03.154-.034.497-.191 1.03l.191-.039c-.047.757-.054 1.224-.02 1.403.058-.012.094.015.106.08-.203.041-.242.515-.116 1.422l.188.463c-.032.364-.108.645-.227.842.012.065.05.092.115.079.047.941.033 1.543-.043 1.805a.716.716 0 0 1 .142.268c-.187.409-.297 1.36-.33 2.855-.063.68-.126 1.026-.19 1.038l-.279.056c-.137.763-.351 1.173-.642 1.232-.142-.237-.26-.347-.352-.328l-.192.039-.454.184c-.055-.286-.373-.42-.955-.401l.003-.501c-.061-.321-.217-.457-.467-.406l-.111-.58c-.06-.316-.248-.441-.561-.378-.279-1.45-.238-3.954.124-7.51-.013-.065-.051-.091-.115-.078l-.002-1 .211.06-.111-.58c.214-.044.284-.357.208-.941l-.128-.669c.145-.03.195-.271.15-.725l-.162-.375c.021-.201.064-.309.128-.322-.012-.065-.05-.092-.115-.079a6.513 6.513 0 0 1 .031-1.396.723.723 0 0 1-.152-.274.732.732 0 0 1 .262-.146c-.095-.147-.218-.456-.368-.926.08-.017.169-.235.263-.655a.712.712 0 0 1-.15-.267l.095-.019-.133-.177c.065-1.704-.004-3.587-.206-5.646.202-.17.44-.283.714-.338l.279-.056c.063-.013.102.014.114.08l.173-.138c.698.268 1.095.654 1.192 1.16l.172-.137.28-.056.019.098-.052.205.933-.188 1.148.371.124.17-.28.057.02.097c.256.647.641 1.301 1.155 1.964.81 1.164 1.355 2.484 1.638 3.96l.259 1.346c.192-.039.571.916 1.138 2.865l.093.482c.013.065-.013.104-.077.117l.132.168c.057.297.025.804-.098 1.52.33.366.547.82.65 1.36l.039.197.182-.037c.128-.026.205-.474.232-1.343l.095-.02-.133-.176-.055-.286c.255-.527.318-2.07.188-4.632.109-.312.185-.923.227-1.833.29-1.319.581-2.177.873-2.575l.096-.02.038.197-.06.206.21.06.096-.02-.018-.097-.192.038.06-.206-.019-.099c-.013-.065-.05-.091-.115-.078a.783.783 0 0 0 .022-.403l.183-.037.006.5c.203-.042.373-.508.51-1.4l-.02-.098.203.061-.019-.098c-.064.013-.102-.014-.115-.079.099-.02.215-.107.348-.264.011.06.046.083.104.071.294-.855.628-1.32 1-1.395l.096-.02.073.384-.66 1.133-.203-.061-.287.058.019.098.375-.076.037.197c-.366.45-.541.717-.525.8-.21.95-.454 3.062-.73 6.334l.018.099.087-.018c.248-.66.375-1.52.384-2.578l.308-1.46.104-.022zm.12.193l.052.273.096-.019-.048-.246a.673.673 0 0 0-.1-.008zm9.255 16.402c-.035.473-.147 1.19-.336 2.154l-.167.848c-.097.494-.213.727-.348.7l-.103 1.087-.125.632c-.38 1.182-.845 1.898-1.395 2.147-.147.117-.41.205-.785.268l-.045.016c-.294.247-.085.18-.325.426-.081.036-.268.055-.554.058v.002c-.174.079-.395.098-.664.057-.321.387-.569.62-.743.697l-1.049-.011c-.954.114-2.142.135-3.563.064-1.094-.543-2.389-.946-3.886-1.21-.745-.582-1.408-.874-1.99-.876-.14-.326-1.136-1.025-2.988-2.098-.618-.353-.99-.501-1.116-.444-.466-.502-.79-.712-.97-.63l-.17-.397c1.767.708 2.716 1.033 2.848.973l-.043-.101-.887-.437-.04-.092.1-.045c.018.043.58.268 1.688.676 1.107.407 2.041.612 2.802.614.617.119 1.013.138 1.187.06l.099-.045c.108-.048.143-.141.106-.278-2.604-.67-3.987-1.195-4.15-1.576l-.146.187c-.198.09-.397-.097-.595-.558l-.189.085.083.194-.1.045a3.414 3.414 0 0 0-.439-.748l.198-.09.044.101c3.384 1.235 5.71 1.886 6.98 1.953 0 0 3.567.802 5.224-.166 2.986-1.746 2.22-13.581 2.22-13.581l.233-3.383c.033-2.383-.188-4.935-.664-7.656-.228-.608-1.148-3-1.05-3.493.153-.338.29-.495.413-.47l.309.064c.027-.138.076-.2.147-.186l.52.108.022-.109.702.257-.019.1c-.206-.043-.323.008-.351.153l.233-.065.097.02-.022.108-.264.275c-.02.105.061.231.247.38l.212.043c.037-.191.168-.311.392-.361l.02-.099.414.085c-.022.112.36.557 1.143 1.335.619.77 1.193 1.885 1.723 3.343.51 2.166.718 3.5.62 4l-.107-.023c.125 1.204.208 2.621.249 4.253-.098.124-.155.225-.17.304.212.043.267.682.165 1.914l-.146.185-.13 2.86c-.24.498-.369.8-.39.906l-.02.663.097.02.234-.065-.043.217-.147.186c.07.014.1.058.085.13-.07-.014-.113.014-.127.087l.208.043c.896-1.3 1.543-2.35 1.943-3.146 0-.154.213-.406.64-.755l1.584-3.575c-.072-.04-.109-.295-.109-.765.5-1.08.817-1.621.955-1.621.519-1.155 1.368-3.616 2.55-7.381l.954-2.276c-.072-.142-.108-.249-.108-.323.262 0 .65-.325 1.161-.976h.433l.099.432h.108c.144 0 .216-.073.216-.221l1.054.11h.216c0 .216.069.323.207.323h.108c0-.215.072-.322.217-.322h.108c.138.02.207.093.207.221l.216-.11h.099v.432h.216c.138 0 .207-.073.207-.22v-.102l-.099-.221.532-.111h.207l-.109.221v.323c.144 0 .217.144.217.433h.846c0 .074-.036.11-.108.11.033.363.14.544.325.544v.645c.039.772.249 1.315.63 1.631 0 .034.108.396.324 1.088l.207-.111h.109l.422 1.63c.21 0 .315.216.315.646-.071 0-.108.037-.108.11l.217.111v-.11c-.072 0-.109-.037-.109-.111h.325c.007.409.217 1.205.63 2.387-.072.396-.108.684-.108.865l.216.111c0-.074.037-.11.109-.11 0 .147.21.617.63 1.409 2.185-.215 3.494-.322 3.927-.322v.222h-.217l.108.533-2.116.655.099.221c0 .343-.315.557-.945.645v.11h.206v.222l-.206.322v.212a94.099 94.099 0 0 1 1.378 4.884c0 .114.069.258.206.433v.11c0 .074-.035.11-.108.11l.955 2.821c-.066 0-.098.037-.098.11.301 0 .616 1.118.945 3.354-.237 0-.41.18-.522.543h-.64c0 .222-.177.333-.532.333-.249-.249-.885-.54-1.909-.876 0-.114-.528-.33-1.584-.644 0-.081-.214-.263-.64-.544v-.222l.738.11h.325c.137 0 .206-.07.206-.21 0-.23-.669-2.002-2.007-5.317 0-.444-.355-1.565-1.064-3.364-1.357.437-2.84.762-4.448.977 0-.074-.036-.11-.108-.11 0 .214-.213.358-.64.432-1.2.282-1.801.681-1.801 1.198-.446 1.45-.87 2.46-1.27 3.031v.333c.21 0 .315.07.315.211v.111l-.207-.11h-.216c-.21.563-.315.925-.315 1.087l-.217-.11c0 .187-.213.405-.64.653 0 .135-.386.786-1.16 1.954l-.217.1h-.207l-.423-.321h-.108c-.138.02-.207.094-.207.221a.795.795 0 0 1 .098.322l-.206.111c-.092-.074-.27-.11-.532-.11 0 .214-.14.321-.423.321l-1.702-1.187c-.437 0-.861-.524-1.275-1.57zm.368-3.015l.004-.006a.213.213 0 0 1-.012-.003.047.047 0 0 1 .008.01zm-35.756 4.165c-1.273-.074-1.909-.362-1.909-.865-.177 0-.354-.075-.532-.222 0 .074-.035.11-.108.11 0-.087-.282-.375-.846-.866 0-.309-.282-.634-.846-.976-.65-.39-1.533-1.944-2.648-4.663-.232-.333-.37-.367-.413-.104.066.551.098 1.182.098 1.894 0 .107-.032.16-.098.16l.098.222v.655c0 .14-.069.5-.206 1.077l.206-.1c.073.745.108 1.178.108 1.299h-.108l.108.211v.765l.109.544c-.144 0-.217.108-.217.323 0 .06.036.348.108.866l-1.16.433c-.427 0-.64-.36-.64-1.078h-.217a3.37 3.37 0 0 0-.099.756h-.108c0-.457-.354-.746-1.063-.867 0-.483-.177-1.064-.531-1.742-.138.074-.243.111-.315.111v.11h.216v.111c0 .068-.036.101-.108.101l.108.221v.222c-.57-.524-.856-1.5-.856-2.93.144-1.49.217-2.558.217-3.203 0-.758-.073-1.426-.217-2.003 0-.067.036-.356.108-.866 0-.094-.036-.457-.108-1.088l.108-.544c-.072-.12-.108-.302-.108-.543h.108c-.138-.383-.242-.923-.315-1.621h.109c-.873-4.56-1.65-6.838-2.333-6.838l-.216-.756v-.11c.02-.148.091-.221.216-.221h.098l.217.11c0-.074.036-.11.108-.11l-.108-.212c.02-.148.088-.222.207-.222.137.074.246.111.324.111 0-.107.105-.215.316-.322.426.302.639.628.639.976.204 0 .522-.18.955-.543l.298-.01c0 .288.282.432.846.432v.222h-.216v.1c.38 0 .662.111.846.333l-.099-.222v-.11h.207c0 .127.214.453.64.977 1.266 3.188 4.918 8.542 6.69 15.188.15 0 .292.326.423.977.709-.785 1.345-3.209 1.91-7.27 0-.068-.036-.1-.109-.1.125-1.74.302-2.61.532-2.61 0 .082.036.189.108.323-.144.289-.217.688-.217 1.199 0 .16.037.305.109.433-.072.839-.177 1.49-.315 1.953.072.503.177.755.315.755h.108c0-.288.07-.433.206-.433v-1.077c.08 0 .188-.037.326-.111-.073-.154-.145-.48-.217-.977.138-.074.243-.11.315-.11l-.098-.544c.065 0 .098-.037.098-.111h-.207v-.211c.282 0 .423-.833.423-2.498.099-.49.204-.815.315-.977-.137 0-.206-.107-.206-.322v-1.198h-.109v-.1c0-.075.037-.112.109-.112l-.109-.221c.165-.161.305-.631.424-1.41l-.109-.211c.145-.269.217-.558.217-.866l-.108-.222h.216v-.111h-.216v-.211a3.97 3.97 0 0 1 1.486-1.743c.636.122.955.266.955.434v.221c-.788.323-1.424.937-1.91 1.843l.108.222-.325 2.386h.217l-.217.322c0 .161.037.306.109.433l-.207.544.098.544-.098.211.098.655v.322c-.137.705-.206 1.104-.206 1.198 0 .161.036.306.108.433-.144.363-.252.544-.325.544l.109.212c0 .362-.07.544-.207.544l.098.221-.206.322c.072.396.108.685.108.866-.072 0-.108.037-.108.11h.206c0-.724.178-1.412.532-2.063l-.109-.645v-.11c.29 0 .434-.29.434-.867h.098l-.098-.221c.164-.235.269-.56.315-.977-.072-.12-.109-.302-.109-.544h.109l-.109-.211.217-.332v-.101a.828.828 0 0 0-.108-.433c.137-.51.242-.766.314-.766-.072-.094-.108-.275-.108-.543.073 0 .108-.034.108-.1l-.108-.444c.099-.329.24-.507.423-.534l-.098-.221a.933.933 0 0 0 .098-.433h.217a32.417 32.417 0 0 0-.108 2.165v.765c-.21 0-.315.07-.315.211.21 0 .315.363.315 1.088h.108c.282-.557.423-.883.423-.977-.072-.14-.108-.248-.108-.322l.108-1.088c-.072-.14-.108-.248-.108-.322.217 0 .325-.144.325-.433h.206v.1c-.282 1.491-.423 3.952-.423 7.382h-.108c0 .074.036.111.108.111l-.108.544v.21l.423-.21v.1c-.138 1.47-.456 3.713-.955 6.727 0 .866-.528 2.06-1.584 3.585 0 .443-.637.695-1.91.755zm9.35-2.532h-.63c0-.14-.214-.285-.64-.433-1.063-1.155-1.595-4.155-1.595-9.002-.066 0-.098-.144-.098-.433 0-.074.032-.111.098-.111l-.098-.544v-.977c0-.067.032-.1.098-.1a.857.857 0 0 1-.098-.333l.098-2.598h.109c0-.074-.036-.11-.109-.11.092-.98.164-1.558.217-1.733 0-.074-.036-.11-.108-.11 0-.075.036-.182.108-.323.072-1.825.108-3.272.108-4.34 0-1.181-.14-2.702-.423-4.561.308-.578.626-.867.954-.867.407 0 .654.182.739.544.518.121.977.484 1.378 1.088 0 .194.072.41.216.644l.207-.1h.108c.138.987.207 1.527.207 1.62h.216V9.3c.302 0 .48.503.532 1.51.098 0 .24.507.423 1.52.072 0 .108.037.108.111 0 .074-.036.111-.108.111l.315 2.276c-.072.39-.108.715-.108.977v1.188a.955.955 0 0 1-.099.443.79.79 0 0 1 .099.322c-.256 2.672-.466 4.008-.63 4.008l.108.765v1.954a.86.86 0 0 1-.108.433.862.862 0 0 1 .108.433v.11c0 .142-.072.212-.216.212 0-.074-.037-.11-.109-.11v.11l.217.322v.222l-.423 3.474-.532.866c-.236 0-.45.107-.64.322 0 .074.036.11.109.11l-.109 1.089v.211zm16.907-15.92l-.096.02c-.012-.065-.062-.154-.15-.266.192-.039.269-.156.23-.352l.088-.018.057.294c-.122.025-.165.133-.129.322zm-25.846 3.95h-.108c-.098 0-.203-.108-.315-.323v-.21c0-.075.036-.112.108-.112l-.108-.221c.144-.235.217-.45.217-.645h.206v.1l-.108.545c.072.282.108.57.108.866zm43.09-2.626c.151-.034.292-.215.424-.544a.931.931 0 0 1-.099-.433c.164 0 .482-.615.955-1.843l-.108-.222v-.11c.387-.45.597-1.064.63-1.843h-.424v.222h.217c-1.063 2.302-1.595 3.893-1.595 4.773zm-19.303 12.04c.128-.335.192-.678.192-1.03.121-.024.271-.422.45-1.193l-.11-.57-.096.019.055.285-.183.037-.038-.196.129-.322-.02-.098c-.126.16-.238.251-.337.271.088.112.139.201.15.266l-.416 1.881-.096.02.092.48c.042.122.118.172.228.15zm22.29-6.058c.36 0 1.529-.288 3.503-.866v-.11c0-.155-.495-1.71-1.486-4.663v-.1c-.334.449-.689 1.244-1.063 2.386-.158 1-.44 1.973-.846 2.92h-.108v.433zm9.486 5.487v-.11c0-.088-.036-.447-.108-1.078l.108-.544c-.072 0-.108-.037-.108-.11l-.207.11h-.216c0-.51-.141-.765-.423-.765.426 1.665.744 2.497.954 2.497z"/></g></svg>