<svg xmlns="http://www.w3.org/2000/svg" width="240" height="240" viewBox="0 0 240 240">
  <g fill="none" fill-rule="evenodd">
    <ellipse cx="112.184" cy="229.149" fill="#000" fill-opacity=".12" rx="82.184" ry="11.149"/>
    <g transform="matrix(-1 0 0 1 229 -4)">
      <g transform="rotate(6 8.594 177.865)">
        <path fill="#000" fill-rule="nonzero" d="M151.5,57.9427306 C141.931454,54.9412781 121.100149,66.3539442 110.774946,66.913337 C95.1161067,67.7620205 54.116565,46.372457 67.071299,79.6150164 C77.6532916,106.767409 94.5692979,89.7938321 111.688478,88.8966539 C126.39698,88.1258139 142.472218,99.2937114 151.500004,83.9481894 L151.5,149 C151.5,163.504807 126.931707,174 97,174 C67.0682932,174 42.5,163.504807 42.5,149 L42.5,74 C34.5,76 31.5,81.3333333 33.5,90 L24,91.5 C21.6666667,76.5 27.8333333,68.6666667 42.5,68 L42.5,62 C33,56 28,77.5 17.5,77.5 C10.5,77.5 5,74 1,67 L9.5,55.5 C11.1666667,63.1666667 15.1666667,67 21.5,67 C31,67 26.5,46.5 42.5,53 L42.5,25 C42.5,10.4951932 67.0682932,0 97,0 C126.931707,0 151.5,10.4951932 151.5,25 L151.5,57.9427306 Z M96.5,44 C123.453622,44 145,34.7957222 145,25 C145,15.2042778 123.453622,6 96.5,6 C69.5463776,6 48,15.2042778 48,25 C48,34.7957222 69.5463776,44 96.5,44 Z"/>
        <g fill="#000" transform="rotate(-1 3686.542 -3908.808)">
          <path fill-rule="nonzero" d="M17.9769477,10.2076037 C15.8306285,9.22809902 13.7056415,8.32878572 11.7002832,7.67760639 C11.4203721,11.2108177 12.9516773,14.4972704 16.3678823,17.6999626 C19.349873,20.4955789 22.1598348,20.8219158 25.1733425,18.4060953 C26.166195,17.3169005 27.026474,16.0877669 27.7541795,14.7186947 C26.5283565,14.2074553 25.2520447,13.6267908 23.9487154,13.0168025 C23.9824617,13.2258976 24,13.4404191 24,13.659037 C24,15.868176 22.209139,17.659037 20,17.659037 C17.790861,17.659037 16,15.868176 16,13.659037 C16,12.1880079 16.7940691,10.9024437 17.9769477,10.2076037 Z M7.77355092,6.74196624 C4.15124172,6.27445834 1.29076994,7.28672716 0,11.159037 C3,-17.340963 36,24.659037 39.5,10.659037 C39.5,16.3296359 36.6033943,17.3268506 32.3643429,16.3060171 C27.9506292,23.7801686 20.6625149,26.5645085 10.5,24.659037 C13.0994247,24.466487 15.4485898,24.0097741 17.5474954,23.2888984 C16.2338816,22.7187057 14.9255911,21.8307427 13.6321177,20.6181114 C9.14386776,16.410377 7.16273202,11.7224358 7.77355092,6.74196624 Z"/>
          <path d="M61.0234263,12.9350444 C59.7080314,13.610961 58.4184591,14.2440527 57.1741039,14.7746386 C57.9047438,16.1542214 58.7696509,17.3920777 59.7688251,18.4882076 C62.7823327,20.9040281 65.5922945,20.5776913 68.5742853,17.7820749 C72.1509492,14.4289525 73.6614876,10.9840163 73.1904622,7.26020459 C71.0319403,7.9024579 68.7811001,8.93086866 66.5281373,10.0678863 C67.9483504,10.6819081 68.9421676,12.0954695 68.9421676,13.7411493 C68.9421676,15.9502883 67.1513066,17.7411493 64.9421676,17.7411493 C62.7330286,17.7411493 60.9421676,15.9502883 60.9421676,13.7411493 C60.9421676,13.4650192 60.9701473,13.195424 61.0234263,12.9350444 Z M52.4738084,16.2102015 C50.011311,16.5494806 47.9126408,15.9565673 46.4021285,13.7411493 C56.4021285,16.7411493 81.9021285,-16.7588507 84.9421676,11.2411493 C82.8973003,7.73503147 80.1893112,6.50584339 77.1360226,6.57557993 C77.8445781,11.6486317 75.8728738,16.4225763 71.3100498,20.7002238 C70.0165764,21.912855 68.708286,22.8008181 67.3946722,23.3710107 C69.4935777,24.0918865 71.8427429,24.5485994 74.4421676,24.7411493 C64.199408,26.6616668 56.8766217,23.8180175 52.4738084,16.2102015 Z M44.4021285,6.24114934 C42.9021285,10.2411493 45.9021285,12.2411493 48.4021285,11.7411493 C45.9021285,11.2411493 44.4021285,9.02890317 44.4021285,6.24114934 Z"/>
        </g>
        <ellipse cx="96.5" cy="25" fill="#EE6344" rx="23.5" ry="10"/>
        <g fill-rule="nonzero" stroke="#000" stroke-width="6" transform="translate(0 106)">
          <path stroke-linecap="round" stroke-linejoin="round" d="M44.0871262,1.05498753 C22.0290421,0.354987531 7.66666667,6.33832086 1,19.0049875"/>
          <circle cx="5.5" cy="22.5" r="5.5" fill="#000"/>
        </g>
        <g fill-rule="nonzero" stroke="#000" stroke-width="6" transform="rotate(-133 118.306 32.606)">
          <path stroke-linecap="round" stroke-linejoin="round" d="M44.0871262,4.92700327 C22.7619778,-5.43548916 8.39960242,0.547844175 1,22.8770033"/>
          <circle cx="6.5" cy="25.5" r="5.5" fill="#000"/>
        </g>
      </g>
      <path stroke="#000" stroke-linecap="round" stroke-linejoin="round" stroke-width="6" d="M62,165 C62.6666667,189.666667 56.6666667,210.666667 44,228"/>
      <path fill="#000" fill-rule="nonzero" d="M42,230.4 C47.4497092,234.322028 51.4497092,236.249339 54,236.181935 C55.9769362,236.129684 59,236.181935 61,236.181935 C61,234 58.3880895,234.095524 58,234 C51.4097394,232.377882 47,226.288773 47,224.4 C47,223.066667 45.3333333,225.066667 42,230.4 Z"/>
      <g fill-rule="nonzero" transform="translate(134 173)">
        <path stroke="#000" stroke-linecap="round" stroke-linejoin="round" stroke-width="6" d="M0,0 C20,19.3333333 23.6666667,37.6666667 11,55"/>
        <path fill="#000" d="M8.90409568,62.0265005 C8.87926147,62.0253071 8.85445168,62.0236507 8.82967924,62.0215322 C7.72913962,61.9274154 6.91327272,60.958955 7.00738953,59.8584154 L7.00736638,59.8584134 C7.41425893,55.1004813 7.89374908,53.2406783 8.44583684,54.2790044 C9.33256219,55.9466922 25.8433103,55.9466922 26.8433103,61.9240478 C25.7342235,62.5137597 19.7544853,62.5479106 8.90409568,62.0265005 Z"/>
      </g>
    </g>
  </g>
</svg>
