<svg xmlns="http://www.w3.org/2000/svg" width="32" height="32" viewBox="0 0 32 32">
    <g fill="none" fill-rule="evenodd" stroke="#EE6344" stroke-linecap="round" stroke-linejoin="round" stroke-width="2">
        <path d="M9.239 6.067l2.828 2.828a2 2 0 0 1 0 2.829l-1.525 1.525a1.333 1.333 0 0 0-.11 1.761l.928 1.192a21.5 21.5 0 0 0 3.771 3.771l1.192.928c.531.413 1.286.366 1.762-.11l1.524-1.525a2 2 0 0 1 2.829 0l2.828 2.829a2 2 0 0 1 0 2.828l-2.712 2.713a2 2 0 0 1-1.494.584c-3.956-.158-7.896-2.2-11.821-6.125-3.926-3.926-5.967-7.866-6.125-11.822a2 2 0 0 1 .584-1.494L6.41 6.067a2 2 0 0 1 2.829 0zM23.852 15.495c0-4.05-3.964-8.014-8.014-8.014M28.095 15.024c0-6.628-5.158-11.785-11.785-11.785"/>
    </g>
</svg>
