<?xml version="1.0" encoding="utf-8"?>
<!-- Generator: Adobe Illustrator 24.3.0, SVG Export Plug-In . SVG Version: 6.00 Build 0)  -->
<svg version="1.1" id="Layer_1" xmlns="http://www.w3.org/2000/svg" xmlns:xlink="http://www.w3.org/1999/xlink" x="0px" y="0px"
	 viewBox="0 0 32 32" style="enable-background:new 0 0 32 32;" xml:space="preserve">
<style type="text/css">
	.st0{fill:#EE6344;}
	.st1{fill:#484848;}
	.st2{fill:none;}
</style>
<g>
	<path class="st0" d="M12.9,4.8v1.6c0,0.5-1.3,1.4-3.5,1.4S5.8,6.9,5.8,6.4V4.8c0.9,0.5,2.1,0.8,3.5,0.8C10.8,5.6,12,5.3,12.9,4.8z"
		/>
</g>
<g>
	<g>
		<path class="st1" d="M9.3,27.5c-4.4,0-7.9-2-7.9-4.5V8.2h1.8v14.7c0,1.3,2.6,2.7,6,2.7v1.9H9.3z"/>
	</g>
</g>
<g>
	<g>
		<rect x="15.4" y="8.3" class="st1" width="1.8" height="5.6"/>
	</g>
</g>
<g>
	<g>
		<path class="st1" d="M17.2,8.3c0,2.5-3.5,4.5-7.9,4.5c-4.4,0-7.9-2-7.9-4.5c0-1.4,1.1-2.8,3.1-3.6l0.7,1.7c-1.2,0.5-2,1.2-2,1.9
			c0,1.3,2.7,2.7,6.1,2.7c3.4,0,6.1-1.4,6.1-2.7c0-0.7-0.8-1.4-2-1.9l0.7-1.7C16.1,5.5,17.2,6.9,17.2,8.3z"/>
	</g>
</g>
<ellipse class="st1" cx="9.4" cy="3.2" rx="5.3" ry="3.2"/>
<g>
	<g>
		<path class="st1" d="M14.7,3.2v3.2c0,0.3,0,0.6-0.1,0.9C14,8.6,11.9,9.6,9.3,9.6c-2.5,0-4.6-1-5.2-2.3C4,7,4,6.7,4,6.4V3.2h1.8
			v3.2c0,0.5,1.3,1.4,3.5,1.4c2.2,0,3.5-0.9,3.5-1.4V3.2H14.7z"/>
	</g>
</g>
<g>
	<path class="st0" d="M12.8,3.2c0,0.5-1.3,1.4-3.5,1.4S5.8,3.7,5.8,3.2s1.3-1.4,3.5-1.4S12.8,2.7,12.8,3.2z"/>
</g>
<g>
	<g>
		<path class="st1" d="M18.1,12.5c-7.1,0-12.7,3.1-12.7,7s5.6,7,12.7,7s12.7-3.1,12.7-7S25.3,12.5,18.1,12.5z M27.8,21.8
			c-1.8,1.7-5.5,2.9-9.7,2.9s-7.9-1.2-9.7-2.9c-0.7-0.7-1.1-1.4-1.1-2.2c0-2.8,5-5.2,10.8-5.2s10.8,2.4,10.8,5.2
			C29,20.3,28.6,21.1,27.8,21.8z"/>
	</g>
</g>
<g>
	<g>
		<path class="st1" d="M18.1,32L18.1,32c-5.1,0-8.6-1.9-9.6-5.2L7.4,23l1.8-0.5l1.2,3.8c0.7,2.5,3.6,3.9,7.8,3.9l0,0
			c4.2,0,7.1-1.4,7.8-3.9l1.2-3.8L29,23l-1.2,3.8C26.7,30.1,23.3,32,18.1,32L18.1,32z"/>
	</g>
</g>
<g>
	<path class="st0" d="M27.8,21.8c-1.8,1.7-5.5,2.9-9.7,2.9s-7.9-1.2-9.7-2.9c1.3-1.7,4.9-3.3,9.7-3.3S26.6,20,27.8,21.8z"/>
</g>
<line class="st2" x1="17.2" y1="13.9" x2="15.4" y2="13.9"/>
</svg>
