<svg xmlns="http://www.w3.org/2000/svg" width="32" height="32"><g fill="none"><path stroke="#484848" stroke-linecap="round" stroke-linejoin="round" stroke-width="2" d="M3.5 14l1.222 3.97a5 5 0 0 0 3.308 3.308l8.419 2.59a5 5 0 0 0 3.922-.42L26.5 20"/><path fill="#EE6344" d="M28.57 21.528C26.776 19.473 19.43 17.186 13.5 16 6 14.5-1.5 16 2 10.5c3.364-5.287 23.638-6.602 27.584 9.935.321 1.347-.625 1.538-1.014 1.093z"/><path stroke="#484848" stroke-linecap="round" stroke-linejoin="round" stroke-width="2" d="M15 7C9.945 8.264 6.684 18.82 9.5 21.5m5 1.5C12.134 17.664 17.017 9.72 21 9"/></g></svg>