<svg version="1.1" id="Layer_1" xmlns="http://www.w3.org/2000/svg" x="0" y="0" viewBox="0 0 841.9 595.3" xml:space="preserve"><style>.st0{fill:#fff}.st1{fill:#005294}</style><linearGradient id="SVGID_1_" gradientUnits="userSpaceOnUse" x1="0" y1="595.28" x2=".707" y2="594.573"><stop offset="0" stop-color="#5e9d3b"/><stop offset=".983" stop-color="#2a3a23"/></linearGradient><path class="st0" d="M9.2 52.8v488.5h823.5V52.8H9.2z"/><path class="st1" d="M145.6 221.2l48 181.2h55.8l86.7-209.9h-56.5L224.9 335l-22.4-111.5-56.9-2.3zm211.6-29.5l-33.3 210.7h52.7l34.1-210.7h-53.5zm208.4 50.4l7.7-44.1s-23.2-9.3-51.1-9.3c-27.9 0-88.3 17.8-88.3 69.7 0 51.9 75.1 54.2 75.1 82.9 0 28.7-67.4 25.6-87.5 7L413 394s30.2 11.6 57.3 11.6c27.1 0 94.5-6.2 94.5-73.6 0-58.9-75.1-47.3-75.1-82.9 0 0 7.7-35.7 75.9-7zm-3.9 160.3h58.1l10.1-30.2h71.2l5.9 29.9h50.4L711.2 194h-46.5s-17 1.9-24.8 22.5c-7.3 19.5-78.2 185.9-78.2 185.9z"/><path class="st0" d="M692.6 328.8h-47.3l29.5-77.4 17.8 77.4z"/><path class="st1" d="M219 305.8l-16.6-82.4s-2.2-30.9-24.3-30.9h-90v4.3c.1.1 89.1 14.8 130.9 109z"/><path fill="#e3a715" d="M9.2 433.2h823.6v122.1H9.2z"/><path class="st1" d="M9.2 40h823.6v122.1H9.2z"/></svg>